<?xml version="1.0" encoding="UTF-8" standalone="no"?>
<svg
   xmlns:dc="http://purl.org/dc/elements/1.1/"
   xmlns:cc="http://creativecommons.org/ns#"
   xmlns:rdf="http://www.w3.org/1999/02/22-rdf-syntax-ns#"
   xmlns:svg="http://www.w3.org/2000/svg"
   xmlns="http://www.w3.org/2000/svg"
   xmlns:sodipodi="http://sodipodi.sourceforge.net/DTD/sodipodi-0.dtd"
   xmlns:inkscape="http://www.inkscape.org/namespaces/inkscape"
   viewBox="0 0 120 120"
   id="svg2"
   version="1.1"
   inkscape:version="0.91 r13725"
   sodipodi:docname="logo-codepen.svg">
  <metadata
     id="metadata10">
    <rdf:RDF>
      <cc:Work
         rdf:about="">
        <dc:format>image/svg+xml</dc:format>
        <dc:type
           rdf:resource="http://purl.org/dc/dcmitype/StillImage" />
        <dc:title></dc:title>
      </cc:Work>
    </rdf:RDF>
  </metadata>
  <defs
     id="defs8" />
  <sodipodi:namedview
     pagecolor="#ffffff"
     bordercolor="#666666"
     borderopacity="1"
     objecttolerance="10"
     gridtolerance="10"
     guidetolerance="10"
     inkscape:pageopacity="0"
     inkscape:pageshadow="2"
     inkscape:window-width="2394"
     inkscape:window-height="1169"
     id="namedview6"
     showgrid="false"
     inkscape:zoom="3.9333333"
     inkscape:cx="76.756989"
     inkscape:cy="27.999138"
     inkscape:window-x="1186"
     inkscape:window-y="632"
     inkscape:window-maximized="0"
     inkscape:current-layer="svg2" />
  <path
     class="main-path"
     d="m 105.26967,45.74508 c -0.009,-0.0573 -0.0232,-0.112151 -0.0317,-0.169446 -0.0195,-0.109712 -0.039,-0.219425 -0.0683,-0.3267 -0.0171,-0.06461 -0.0402,-0.126779 -0.0609,-0.187731 -0.0305,-0.09508 -0.0622,-0.190169 -0.1,-0.282815 -0.0256,-0.06461 -0.0573,-0.127998 -0.0865,-0.190169 -0.0402,-0.08777 -0.0829,-0.174322 -0.13166,-0.257216 -0.0353,-0.06217 -0.0744,-0.121903 -0.11093,-0.180416 -0.0524,-0.08046 -0.10606,-0.159693 -0.16457,-0.235273 -0.0427,-0.0573 -0.0878,-0.114589 -0.13287,-0.169446 -0.0622,-0.07192 -0.12678,-0.142626 -0.19383,-0.209673 -0.0512,-0.05242 -0.10118,-0.104837 -0.15482,-0.152379 -0.0719,-0.06461 -0.14506,-0.126779 -0.22064,-0.185293 -0.0585,-0.0451 -0.11581,-0.09021 -0.17676,-0.132874 -0.0232,-0.01463 -0.0427,-0.03291 -0.0646,-0.04754 L 62.201291,15.489939 c -1.306802,-0.871607 -3.00857,-0.871607 -4.315372,0 L 16.51565,43.016887 c -0.02194,0.01463 -0.04145,0.03291 -0.06461,0.04754 -0.06095,0.04267 -0.118246,0.08777 -0.175541,0.121903 -0.07558,0.05973 -0.149941,0.121903 -0.220644,0.185293 -0.05486,0.04754 -0.104837,0.09996 -0.156036,0.152379 -0.06827,0.06705 -0.131656,0.13775 -0.192607,0.243806 -0.04632,0.05486 -0.09143,0.112151 -0.134094,0.169445 -0.05729,0.07558 -0.112151,0.154817 -0.16335,0.235273 -0.03901,0.05973 -0.07558,0.119465 -0.112151,0.121903 -0.04754,0.0829 -0.09021,0.169446 -0.131655,0.257216 -0.02926,0.06217 -0.06095,0.126779 -0.08655,0.190169 -0.03779,0.09265 -0.06948,0.187731 -0.09996,0.243806 -0.02072,0.06217 -0.04267,0.124341 -0.06095,0.187731 -0.02804,0.107275 -0.04754,0.216988 -0.06827,0.3267 -0.0098,0.0573 -0.02438,0.112151 -0.03047,0.121904 -0.02316,0.167007 -0.03535,0.335233 -0.03535,0.507117 l 0,27.703707 c 0,0.121904 0,0.36571 0,0.509556 0.0073,0 0,0.121903 0,0.121903 0.02072,0.121903 0,0.243806 0.121903,0.3267 0.01829,0.121903 0,0.121903 0.121903,0.187731 0.03048,0.121903 0.121903,0.243806 0.121903,0.243806 0.0256,0.121903 0,0.121903 0.121903,0.187731 0.04145,0.121903 0.121903,0.121903 0.121903,0.259654 0.03535,0 0.121904,0.121903 0.121904,0.121903 0.0512,0.121903 0.121903,0.121903 0.121903,0.235273 0.04267,0 0.121903,0.121903 0.121903,0.169445 0.06095,0.121904 0.121903,0.121904 0.243806,0.243807 0.0512,0 0.121903,0.121903 0.121903,0.152379 0.0707,0.121903 0.121903,0.121903 0.243807,0.185292 0.05729,0 0.121903,0.121904 0.121903,0.121904 0.02316,0 0,0 0.121903,0.04754 L 57.885919,104.6499 c 0.653401,0.48761 1.462838,0.60951 2.194257,0.65462 0.750923,0 1.503066,-0.21943 2.157686,-0.65462 L 103.60935,77.069311 c 0.0219,-0.01463 0.0414,-0.03291 0.0646,-0.04754 0.061,-0.04267 0.11824,-0.08777 0.17676,-0.132875 0.0756,-0.05973 0.14872,-0.121903 0.22064,-0.185293 0.0536,-0.04754 0.10362,-0.09996 0.15482,-0.152378 0.0683,-0.06705 0.13165,-0.137751 0.19383,-0.209674 0.0451,-0.05486 0.0902,-0.109713 0.13287,-0.169445 0.0585,-0.07558 0.11215,-0.154817 0.16457,-0.235273 0.0366,-0.05973 0.0756,-0.119465 0.11093,-0.177979 0.0488,-0.08533 0.0914,-0.171883 0.13166,-0.259654 0.0292,-0.06217 0.0609,-0.124341 0.0865,-0.18773 0.0378,-0.09509 0.0695,-0.190169 0.1,-0.285254 0.0207,-0.06217 0.0439,-0.124341 0.0609,-0.187731 0.028,-0.107274 0.0488,-0.216987 0.0683,-0.3267 0.01,-0.05486 0.0244,-0.112151 0.0317,-0.167007 0.0219,-0.169446 0.0341,-0.337672 0.0341,-0.509555 l 0,-27.583024 c -0.0366,-0.164569 -0.007,-0.286473 -0.12921,-0.507117 z M 63.933534,25.940695 94.410539,46.257073 80.797615,55.364457 63.933534,44.08354 l 0,-18.142845 z m -7.779858,0.03291 0,18.142845 L 39.290814,55.364457 25.676671,46.257073 56.153676,25.940695 Z m -33.590411,27.559862 9.731528,6.509628 -9.731528,6.509628 0,-13.019256 z m 33.590411,40.610813 -30.477005,-20.26274 13.614143,-9.104946 16.862862,11.278479 0,18.089207 z m 3.891148,-24.898717 -13.757988,-9.202468 13.757988,-9.202468 13.75677,9.202468 -13.75677,9.202468 z m 3.88871,24.898717 0,-18.141626 16.864081,-11.278478 13.612924,9.104945 -30.477005,20.315159 z m 33.59163,-27.591557 -9.730309,-6.509628 9.730309,-6.509628 0,13.019256 z"
     id="path4"
     inkscape:connector-curvature="0" />
</svg>
