<?xml version="1.0" encoding="UTF-8" standalone="no"?><svg xmlns="http://www.w3.org/2000/svg" xmlns:xlink="http://www.w3.org/1999/xlink"><symbol viewBox="0 0 120 120" id="logo-codepen" xmlns="http://www.w3.org/2000/svg"><path class="amain-path" d="M105.27 45.745c-.01-.057-.024-.112-.032-.17-.02-.11-.039-.219-.068-.326-.017-.065-.04-.127-.061-.188a3.9 3.9 0 0 0-.1-.283c-.026-.064-.058-.128-.087-.19a2.83 2.83 0 0 0-.131-.257c-.036-.062-.075-.122-.111-.18a4.583 4.583 0 0 0-.297-.405 3.958 3.958 0 0 0-.195-.21c-.05-.052-.1-.105-.154-.152a3.935 3.935 0 0 0-.221-.185c-.059-.046-.116-.09-.177-.133-.023-.015-.043-.033-.064-.048L62.202 15.49a3.888 3.888 0 0 0-4.316 0l-41.37 27.527c-.022.015-.042.033-.065.047-.06.043-.118.088-.176.122a4.66 4.66 0 0 0-.22.186c-.055.047-.105.1-.156.152a1.077 1.077 0 0 0-.193.244 3.556 3.556 0 0 0-.297.405c-.04.06-.076.119-.112.121-.048.083-.09.17-.132.258-.03.062-.061.126-.087.19-.037.092-.07.188-.1.244-.02.062-.042.124-.06.187-.029.108-.048.217-.069.327a.613.613 0 0 1-.03.122 3.679 3.679 0 0 0-.036.507V74.343c.008 0 0 .121 0 .121.021.122 0 .244.122.327.019.122 0 .122.122.188.03.122.122.243.122.243.026.122 0 .122.122.188.041.122.122.122.122.26.035 0 .122.122.122.122.051.122.122.122.122.235.042 0 .122.122.122.17.06.121.122.121.243.243.052 0 .122.122.122.153.071.122.122.122.244.185.057 0 .122.122.122.122.023 0 0 0 .122.047l41.274 27.703c.653.488 1.463.61 2.194.655.751 0 1.503-.22 2.158-.655l41.371-27.58c.022-.015.042-.034.065-.048.06-.043.118-.088.177-.133.075-.06.148-.122.22-.185.054-.048.104-.1.155-.153.068-.067.132-.138.194-.21.045-.054.09-.11.133-.169.058-.075.112-.155.164-.235l.111-.178c.05-.085.092-.172.132-.26.03-.062.06-.124.087-.188.037-.095.069-.19.1-.285.02-.062.043-.124.06-.188.028-.107.05-.217.069-.326.01-.055.024-.112.031-.167.022-.17.035-.338.035-.51V46.252c-.037-.164-.007-.286-.13-.507zM63.934 25.941L94.41 46.257l-13.613 9.107-16.864-11.28V25.94zm-7.78.033v18.142L39.29 55.364l-13.614-9.107 30.477-20.316zm-33.59 27.56l9.73 6.51-9.73 6.509v-13.02zm33.59 40.61L25.677 73.882l13.614-9.105 16.863 11.278v18.09zm3.89-24.898l-13.757-9.203 13.758-9.202 13.757 9.202-13.757 9.203zm3.89 24.898V76.003l16.864-11.279L94.41 73.83 63.934 94.144zm33.591-27.591l-9.73-6.51 9.73-6.51v13.02z"/></symbol><symbol viewBox="0 0 512 512" id="logo-github"><path d="M256 70.7c-102.6 0-185.9 83.2-185.9 185.9 0 82.1 53.3 151.8 127.1 176.4 9.3 1.7 12.3-4 12.3-8.9v-34.7c-51.7 11.3-62.5-21.9-62.5-21.9-8.4-21.5-20.6-27.2-20.6-27.2-16.9-11.5 1.3-11.3 1.3-11.3 18.7 1.3 28.5 19.2 28.5 19.2 16.6 28.4 43.5 20.2 54.1 15.4 1.7-12 6.5-20.2 11.8-24.9-41.3-4.7-84.7-20.6-84.7-91.9 0-20.3 7.3-36.9 19.2-49.9-1.9-4.7-8.3-23.6 1.8-49.2 0 0 15.6-5 51.1 19.1 14.8-4.1 30.7-6.2 46.5-6.3 15.8.1 31.7 2.1 46.6 6.3 35.5-24 51.1-19.1 51.1-19.1 10.1 25.6 3.8 44.5 1.8 49.2 11.9 13 19.1 29.6 19.1 49.9 0 71.4-43.5 87.1-84.9 91.7 6.7 5.8 12.8 17.1 12.8 34.4v51c0 4.9 3 10.7 12.4 8.9 73.8-24.6 127-94.3 127-176.4 0-102.5-83.3-185.7-185.9-185.7z"/></symbol><symbol viewBox="0 0 512 512" id="logo-twitter" xmlns="http://www.w3.org/2000/svg"><path d="M454.324 141.092c-14.26 6.338-29.495 10.603-45.583 12.432 16.331-9.873 29.007-25.351 34.857-43.877a157.455 157.455 0 0 1-50.336 19.257c-14.504-15.357-35.102-25.107-57.893-25.107-51.19 0-88.85 47.777-77.272 97.382-65.937-3.291-124.44-34.858-163.563-82.879-20.72 35.59-10.726 82.27 24.498 105.914-13.042-.366-25.23-4.022-35.955-9.872-.853 36.808 25.473 71.178 63.621 78.734-11.213 3.047-23.4 3.779-35.832 1.341 10.116 31.567 39.367 54.48 74.103 55.09-33.395 26.082-75.322 37.783-117.493 32.907 35.102 22.548 76.785 35.59 121.637 35.59 147.23 0 230.475-124.44 225.478-235.96 15.722-11.091 29.13-24.986 39.733-40.952z"/></symbol><symbol viewBox="0 0 20 20" id="timeline-bottom" xmlns="http://www.w3.org/2000/svg"><path class="dmain-path" d="M8 0v4H2v2h16V4h-6V0H8zM5 7.008v2h10v-2H5zM8 10v2h4v-2H8z"/></symbol><symbol viewBox="0 0 20 20" id="timeline-top" xmlns="http://www.w3.org/2000/svg"><path class="emain-path" d="M10 6l-8 8h6v6h4v-6h6l-8-8z"/></symbol></svg>